<svg id="Layer_1" enable-background="new 0 0 512.219 512.219" height="512" viewBox="0 0 512.219 512.219" width="512" xmlns="http://www.w3.org/2000/svg"><g><path d="m415.418 461.26h-4.786l-130.616-351.563c8.73-7.013 14.328-17.774 14.328-29.817 0-21.082-17.152-38.234-38.234-38.234s-38.234 17.152-38.234 38.234c0 12.043 5.598 22.804 14.328 29.817l-53.484 143.956c-1.443 3.883.536 8.2 4.418 9.643.861.32 1.743.472 2.611.472 3.045 0 5.909-1.868 7.031-4.89l12.369-33.293 39.372 33.538-75.804 64.523 12.269-33.024c1.443-3.883-.536-8.2-4.418-9.643-3.882-1.444-8.2.536-9.642 4.418l-65.34 175.863h-4.786c-12.466 0-22.607 10.142-22.607 22.607v20.852c0 4.143 3.358 7.5 7.5 7.5h284.585c4.142 0 7.5-3.357 7.5-7.5s-3.358-7.5-7.5-7.5h-277.085v-13.352c0-4.194 3.413-7.607 7.607-7.607h318.617c4.195 0 7.607 3.413 7.607 7.607v13.352h-21.811c-4.142 0-7.5 3.357-7.5 7.5s3.358 7.5 7.5 7.5h29.311c4.142 0 7.5-3.357 7.5-7.5v-20.852c.001-12.466-10.14-22.607-22.606-22.607zm-71.866-137.482-75.895-64.65 39.412-33.547zm-63.39-170.618-15.085-23.015 4.17-6.363zm-24.053-96.515c12.811 0 23.234 10.423 23.234 23.234s-10.423 23.233-23.234 23.233-23.234-10.422-23.234-23.232c0-12.812 10.423-23.235 23.234-23.235zm-13.137 67.137 4.171 6.363-15.086 23.016zm13.137 20.044 40.375 61.599h-80.75zm-33.888 76.599h67.764l-33.895 28.851zm33.866 48.551 83.977 71.534h-168.019zm71.145 86.534-71.159 33.878-71.194-33.878zm-171.392 2.793 82.782 39.392-118.352 56.345zm-15.838 102.957 116.072-55.26 116.128 55.26zm133.522-63.568 82.836-39.437 35.589 95.79z"/><path d="m156.326 129.185c1.441 1.324 3.26 1.979 5.074 1.979 2.025 0 4.045-.815 5.524-2.425 2.803-3.049 2.603-7.794-.446-10.597-10.682-9.818-16.808-23.765-16.808-38.263 0-14.499 6.126-28.445 16.808-38.262 3.05-2.804 3.25-7.548.447-10.598s-7.547-3.25-10.597-.446c-13.764 12.649-21.657 30.621-21.657 49.306-.002 18.684 7.892 36.656 21.655 49.306z"/><path d="m185.897 100.607c1.356 1.03 2.95 1.527 4.531 1.527 2.264 0 4.503-1.021 5.978-2.964 2.505-3.299 1.862-8.004-1.437-10.509-2.773-2.106-4.364-5.308-4.364-8.782 0-3.476 1.591-6.677 4.364-8.783 3.299-2.505 3.942-7.21 1.437-10.509s-7.211-3.943-10.509-1.437c-6.541 4.968-10.292 12.523-10.292 20.729s3.752 15.761 10.292 20.728z"/><path d="m127.637 157.694c1.452 1.381 3.311 2.065 5.168 2.065 1.982 0 3.961-.781 5.436-2.331 2.854-3.002 2.736-7.749-.266-10.604-18.523-17.618-28.725-41.393-28.725-66.945 0-25.554 10.201-49.328 28.724-66.945 3.001-2.854 3.121-7.602.266-10.604-2.854-3-7.602-3.118-10.603-.266-21.53 20.478-33.387 48.113-33.387 77.816 0 29.702 11.857 57.337 33.387 77.814z"/><path d="m345.741 118.143c-3.049 2.803-3.249 7.548-.446 10.597 1.479 1.609 3.498 2.425 5.524 2.425 1.814 0 3.633-.654 5.074-1.979 13.763-12.65 21.657-30.622 21.657-49.306 0-18.685-7.894-36.656-21.657-49.306-3.05-2.803-7.793-2.604-10.597.446-2.803 3.05-2.603 7.794.447 10.598 10.682 9.816 16.808 23.763 16.808 38.262-.002 14.498-6.128 28.444-16.81 38.263z"/><path d="m317.249 88.662c-3.299 2.505-3.942 7.21-1.437 10.509 1.476 1.942 3.713 2.964 5.978 2.964 1.581 0 3.175-.497 4.531-1.527 6.541-4.968 10.292-12.522 10.292-20.728s-3.751-15.761-10.292-20.729c-3.298-2.506-8.004-1.863-10.509 1.437-2.505 3.299-1.862 8.004 1.437 10.509 2.773 2.106 4.364 5.308 4.364 8.783 0 3.474-1.591 6.676-4.364 8.782z"/><path d="m374.244 12.934c18.523 17.617 28.724 41.392 28.724 66.945s-10.201 49.327-28.725 66.945c-3.001 2.854-3.12 7.602-.266 10.604 1.474 1.55 3.453 2.331 5.436 2.331 1.857 0 3.716-.686 5.168-2.065 21.53-20.478 33.387-48.112 33.387-77.814 0-29.703-11.857-57.338-33.387-77.814-3-2.854-7.748-2.735-10.603.266-2.854 3.001-2.735 7.748.266 10.602z"/></g></svg>