<svg enable-background="new 0 0 512 512" viewBox="0 0 512 512" xmlns="http://www.w3.org/2000/svg"><path d="m492 376c-11.046 0-20 8.954-20 20 0 22.056-17.944 40-40 40h-152.665l-45.985-59.656 145.147-184.618 98.066 116.991c.195.236.395.468.6.694.007.008.014.016.021.024.024.027.049.054.074.081 1.821 1.989 3.961 3.53 6.276 4.609 2.378 1.112 5.012 1.77 7.788 1.862.051.002.102.004.153.005.009 0 .018 0 .026.001 1.429.036 2.863-.08 4.276-.35l.053-.01c.062-.012.124-.024.187-.037.025-.005.051-.011.077-.016.054-.011.108-.022.162-.034.03-.007.06-.013.09-.02l.147-.033c.035-.008.07-.016.104-.025.044-.01.088-.021.132-.031.038-.009.075-.019.113-.028.041-.01.083-.021.124-.031.038-.01.075-.02.113-.03.042-.011.083-.022.125-.033.038-.01.076-.021.114-.031l.117-.032c.041-.012.082-.024.123-.035.04-.011.079-.023.118-.034.032-.009.064-.019.097-.029.049-.015.099-.03.147-.045.027-.008.054-.017.08-.025.05-.015.099-.031.149-.047l.09-.03c.049-.016.099-.033.148-.049.023-.008.046-.016.069-.023.055-.019.111-.038.166-.057.021-.007.042-.015.063-.022.057-.02.113-.04.169-.061.018-.007.036-.013.054-.02.062-.023.123-.045.184-.069l.031-.012c.068-.026.136-.052.204-.079.004-.001.008-.003.012-.005.073-.029.146-.058.219-.088.889-.363 1.759-.794 2.603-1.293.012-.007.024-.014.036-.021.057-.034.114-.068.171-.102 1.078-.655 2.089-1.409 3.021-2.25.017-.015.033-.03.05-.045.015-.014.03-.028.045-.041 2.005-1.829 3.558-3.981 4.643-6.311 1.115-2.387 1.773-5.03 1.861-7.818.001-.036.002-.071.003-.107 0-.023.001-.046.001-.068.001-.068.003-.137.004-.205 0-.002 0-.003 0-.005.001-.105.001-.211.001-.317v-179.939c0-44.112-35.888-80-80-80h-351.997c-44.112 0-80 35.887-80 80v280c0 44.112 35.888 80 80 80h189.374c.047 0 .094.001.141.001.063 0 .125 0 .188-.001h162.297c44.112 0 80-35.888 80-80 0-11.047-8.954-20-20-20zm-412 60c-22.056 0-40-17.944-40-40v-280c0-22.056 17.944-40 40-40h352c22.056 0 40 17.944 40 40v125.007l-78.673-93.855c-3.87-4.618-9.603-7.241-15.64-7.15-6.024.094-11.686 2.9-15.409 7.636l-154.118 196.026-52.32-67.875c-3.786-4.913-9.638-7.79-15.84-7.79h-.01c-6.206.003-12.059 2.887-15.843 7.806l-44.015 57.219c-6.734 8.755-5.097 21.312 3.658 28.047 8.757 6.735 21.313 5.097 28.047-3.658l28.179-36.633 88.816 115.22z"/><path d="m140 108c-33.084 0-60 26.916-60 60s26.916 60 60 60 60-26.916 60-60-26.916-60-60-60zm0 80c-11.028 0-20-8.972-20-20s8.972-20 20-20 20 8.972 20 20-8.972 20-20 20z"/></svg>